<?xml version="1.0" encoding="UTF-8"?>
<svg xmlns="http://www.w3.org/2000/svg" viewBox="0 0 580 180" role="img" aria-label="Moospace logo — Unified oo">
  <title>Moospace — Unified oo (Horizontal)</title>
  <defs>
    <linearGradient id="goldUH" x1="0" y1="55" x2="0" y2="120" gradientUnits="userSpaceOnUse">
      <stop offset="0" stop-color="#FAE39B"/>
      <stop offset="0.55" stop-color="#F5C843"/>
      <stop offset="1" stop-color="#B8841E"/>
    </linearGradient>
  </defs>

  <text x="70" y="105" font-family="'Cormorant Garamond','Noto Serif TC',serif"
        font-weight="300" font-size="64" fill="url(#goldUH)">M</text>

  <g transform="translate(176 88)">
    <path fill="url(#goldUH)" fill-rule="nonzero" d="
      M -32,0
      A 18,24 0 1 0 4,0
      A 18,24 0 1 0 -32,0 Z
      M -22,0
      A 8,13 0 1 1 -6,0
      A 8,13 0 1 1 -22,0 Z
      M -4,0
      A 18,24 0 1 0 32,0
      A 18,24 0 1 0 -4,0 Z
      M 6,0
      A 8,13 0 1 1 22,0
      A 8,13 0 1 1 6,0 Z
    "/>
  </g>

  <text x="214" y="105" font-family="'Cormorant Garamond','Noto Serif TC',serif"
        font-weight="300" font-size="64" fill="url(#goldUH)">space</text>

  <text x="70" y="140" font-family="'Noto Serif TC','Source Han Serif TC',serif"
        font-weight="300" font-size="13" letter-spacing="16"
        fill="#D3B574" opacity="0.85">沐  空  間</text>
</svg>
