<?xml version="1.0" encoding="UTF-8"?>
<svg xmlns="http://www.w3.org/2000/svg" viewBox="0 0 560 180" role="img" aria-label="Moospace logo — Energy Radiance">
  <title>Moospace — Energy Radiance (Horizontal)</title>
  <defs>
    <radialGradient id="c8h-aura" cx="50%" cy="50%" r="50%">
      <stop offset="0%" stop-color="#F5C843" stop-opacity="0.28"/>
      <stop offset="60%" stop-color="#F5C843" stop-opacity="0.06"/>
      <stop offset="100%" stop-color="#F5C843" stop-opacity="0"/>
    </radialGradient>
  </defs>
  <circle cx="95" cy="90" r="85" fill="url(#c8h-aura)"/>
  <g transform="translate(95 90)">
    <g stroke="#F5C843" stroke-width="0.5" stroke-linecap="round" opacity="0.5">
      <line x1="0" y1="-78" x2="0" y2="-64"/>
      <g transform="rotate(30)"><line x1="0" y1="-78" x2="0" y2="-64"/></g>
      <g transform="rotate(60)"><line x1="0" y1="-78" x2="0" y2="-64"/></g>
      <g transform="rotate(90)"><line x1="0" y1="-78" x2="0" y2="-64"/></g>
      <g transform="rotate(120)"><line x1="0" y1="-78" x2="0" y2="-64"/></g>
      <g transform="rotate(150)"><line x1="0" y1="-78" x2="0" y2="-64"/></g>
      <g transform="rotate(180)"><line x1="0" y1="-78" x2="0" y2="-64"/></g>
      <g transform="rotate(210)"><line x1="0" y1="-78" x2="0" y2="-64"/></g>
      <g transform="rotate(240)"><line x1="0" y1="-78" x2="0" y2="-64"/></g>
      <g transform="rotate(270)"><line x1="0" y1="-78" x2="0" y2="-64"/></g>
      <g transform="rotate(300)"><line x1="0" y1="-78" x2="0" y2="-64"/></g>
      <g transform="rotate(330)"><line x1="0" y1="-78" x2="0" y2="-64"/></g>
    </g>
    <path d="M -48,0 C -48,-22 -15,-22 0,0 C 15,22 48,22 48,0 C 48,-22 15,-22 0,0 C -15,22 -48,22 -48,0 Z"
          fill="none" stroke="#F5C843" stroke-width="2.6" stroke-linecap="round" stroke-linejoin="round"/>
    <circle cx="0" cy="0" r="1.8" fill="#F5C843"/>
  </g>
  <text x="210" y="88" font-family="'Cormorant Garamond','Noto Serif TC',serif"
        font-weight="300" font-size="46" letter-spacing="6" fill="#F5C843">Moospace</text>
  <text x="212" y="120" font-family="'Noto Serif TC','Source Han Serif TC',serif"
        font-weight="300" font-size="14" letter-spacing="18" fill="#D3B574" opacity="0.8">沐  空  間</text>
</svg>
