<?xml version="1.0" encoding="UTF-8"?>
<svg xmlns="http://www.w3.org/2000/svg" viewBox="0 0 200 200" role="img" aria-label="Moospace mark (light bg) — Energy Radiance">
  <title>Moospace — Energy Radiance (Light)</title>
  <g transform="translate(100 100)">
    <g stroke="#16163F" stroke-width="0.7" stroke-linecap="round" opacity="0.35">
      <line x1="0" y1="-90" x2="0" y2="-74"/>
      <g transform="rotate(15)"><line x1="0" y1="-88" x2="0" y2="-78"/></g>
      <g transform="rotate(30)"><line x1="0" y1="-90" x2="0" y2="-74"/></g>
      <g transform="rotate(45)"><line x1="0" y1="-88" x2="0" y2="-78"/></g>
      <g transform="rotate(60)"><line x1="0" y1="-90" x2="0" y2="-74"/></g>
      <g transform="rotate(75)"><line x1="0" y1="-88" x2="0" y2="-78"/></g>
      <g transform="rotate(90)"><line x1="0" y1="-90" x2="0" y2="-74"/></g>
      <g transform="rotate(105)"><line x1="0" y1="-88" x2="0" y2="-78"/></g>
      <g transform="rotate(120)"><line x1="0" y1="-90" x2="0" y2="-74"/></g>
      <g transform="rotate(135)"><line x1="0" y1="-88" x2="0" y2="-78"/></g>
      <g transform="rotate(150)"><line x1="0" y1="-90" x2="0" y2="-74"/></g>
      <g transform="rotate(165)"><line x1="0" y1="-88" x2="0" y2="-78"/></g>
      <g transform="rotate(180)"><line x1="0" y1="-90" x2="0" y2="-74"/></g>
      <g transform="rotate(195)"><line x1="0" y1="-88" x2="0" y2="-78"/></g>
      <g transform="rotate(210)"><line x1="0" y1="-90" x2="0" y2="-74"/></g>
      <g transform="rotate(225)"><line x1="0" y1="-88" x2="0" y2="-78"/></g>
      <g transform="rotate(240)"><line x1="0" y1="-90" x2="0" y2="-74"/></g>
      <g transform="rotate(255)"><line x1="0" y1="-88" x2="0" y2="-78"/></g>
      <g transform="rotate(270)"><line x1="0" y1="-90" x2="0" y2="-74"/></g>
      <g transform="rotate(285)"><line x1="0" y1="-88" x2="0" y2="-78"/></g>
      <g transform="rotate(300)"><line x1="0" y1="-90" x2="0" y2="-74"/></g>
      <g transform="rotate(315)"><line x1="0" y1="-88" x2="0" y2="-78"/></g>
      <g transform="rotate(330)"><line x1="0" y1="-90" x2="0" y2="-74"/></g>
      <g transform="rotate(345)"><line x1="0" y1="-88" x2="0" y2="-78"/></g>
    </g>
    <circle cx="0" cy="0" r="66" fill="none" stroke="#16163F" stroke-width="0.5" opacity="0.2"/>
    <path d="M -56,0 C -56,-26 -18,-26 0,0 C 18,26 56,26 56,0 C 56,-26 18,-26 0,0 C -18,26 -56,26 -56,0 Z"
          fill="none" stroke="#16163F" stroke-width="3" stroke-linecap="round" stroke-linejoin="round"/>
    <circle cx="0" cy="0" r="2.2" fill="#F5C843"/>
  </g>
</svg>
