<?xml version="1.0" encoding="UTF-8"?>
<svg xmlns="http://www.w3.org/2000/svg" viewBox="0 0 560 180" role="img" aria-label="Moospace logo — Constellation">
  <title>Moospace — Constellation (Horizontal)</title>
  <g transform="translate(95 90)">
    <g fill="none" stroke="#F5C843" stroke-width="0.6" stroke-linecap="round" opacity="0.75">
      <path d="M -58,0 L -46,-15 L -29,-23 L -13,-17 L 0,0 L 17,-17 L 33,-23 L 46,-15 L 58,0 L 46,15 L 33,23 L 17,17 L 0,0 L -13,17 L -29,23 L -46,15 Z"/>
    </g>
    <g fill="#F5C843">
      <circle cx="-58" cy="0" r="1.8"/>
      <circle cx="-46" cy="-15" r="1.1"/>
      <circle cx="-29" cy="-23" r="2.2"/>
      <circle cx="-13" cy="-17" r="1.1"/>
      <circle cx="0" cy="0" r="2"/>
      <circle cx="17" cy="-17" r="1.1"/>
      <circle cx="33" cy="-23" r="2.2"/>
      <circle cx="46" cy="-15" r="1.1"/>
      <circle cx="58" cy="0" r="1.8"/>
      <circle cx="46" cy="15" r="1.1"/>
      <circle cx="33" cy="23" r="2.2"/>
      <circle cx="17" cy="17" r="1.1"/>
      <circle cx="-13" cy="17" r="1.1"/>
      <circle cx="-29" cy="23" r="2.2"/>
      <circle cx="-46" cy="15" r="1.1"/>
    </g>
  </g>
  <text x="210" y="88" font-family="'Cormorant Garamond','Noto Serif TC',serif"
        font-weight="300" font-size="46" letter-spacing="6" fill="#F5C843">Moospace</text>
  <text x="212" y="120" font-family="'Noto Serif TC','Source Han Serif TC',serif"
        font-weight="300" font-size="14" letter-spacing="18" fill="#D3B574" opacity="0.8">沐  空  間</text>
</svg>
